#!OML:ASF H:\MichaelJackson\Top Level 1\Subject 1\Session 1\male.ASF
:FULLY-SPECIFIED
:DEGREES
246
root 4.56562 17.7158 -6.49238 7.22752 -8.22467 -6.29376
lowerback 8.86393 3.26495 0.101054
upperback 2.11609 4.47675 4.07785
thorax -3.08517 2.23313 3.65832
lowerneck -10.4468 -3.48852 5.27755
upperneck 7.87543 -5.59906 1.46189
head 4.38881 -2.5081 -0.838252
rclavicle 2.0773e-014 -1.31198e-014
rhumerus -22.1339 -4.11924 4.87304
rradius 58.0312
rwrist -2.22804
rhand -46.738 -41.9852
rfingers 7.12502
rthumb -19.4553 -71.0319
lclavicle 2.0773e-014 -1.31198e-014
lhumerus -39.3248 4.23705 16.125
lradius 100.801
lwrist 42.6715
lhand -25.5485 4.11994
lfingers 7.12502
lthumb 0.981835 34.0974
rfemur -62.5275 -17.207 22.482
rtibia 83.6781
rfoot 11.1214 5.5993
rtoes 12.0545
lfemur -14.6824 -1.29932 -17.115
ltibia 32.5636
lfoot -5.5655 -4.87199
ltoes 63.8705
247
root 4.50298 17.3825 -6.3707 7.36984 -7.93468 -6.49678
lowerback 8.84637 3.11747 0.0480084
upperback 2.03709 4.27266 3.90146
thorax -3.13409 2.13234 3.52743
lowerneck -9.99248 -3.29957 5.53554
upperneck 7.22476 -5.3501 1.70621
head 4.06836 -2.38943 -0.761163
rclavicle -1.56046e-014 -1.35174e-014
rhumerus -25.3035 -4.91902 3.67892
rradius 60.3564
rwrist -2.76094
rhand -47.6476 -43.6403
rfingers 7.12502
rthumb -20.3298 -72.5962
lclavicle -1.56046e-014 -1.35174e-014
lhumerus -41.3579 3.86194 18.5072
lradius 101.218
lwrist 40.6396
lhand -25.8487 3.36626
lfingers 7.12502
lthumb 0.69188 33.3449
rfemur -60.5378 -15.6271 22.8652
rtibia 79.9324
rfoot 10.1547 6.38106
rtoes 8.65264
lfemur -15.5373 -0.0859552 -17.1823
ltibia 35.6881
lfoot -8.72926 -10.1925
ltoes 63.072
248
root 4.43581 17.0637 -6.25911 7.47267 -7.48587 -6.49682
lowerback 8.94686 2.93956 -0.16871
upperback 1.9977 4.01138 3.66317
thorax -3.21129 2.00396 3.42643
lowerneck -9.48728 -3.12485 5.7419
upperneck 6.44864 -5.10724 2.05503
head 3.70165 -2.27686 -0.640501
rclavicle 1.18277e-014 -1.86858e-014
rhumerus -28.6529 -5.81998 2.23358
rradius 62.6297
rwrist -3.75966
rhand -48.4159 -45.9824
rfingers 7.12502
rthumb -21.068 -74.8579
lclavicle 1.18277e-014 -1.86858e-014
lhumerus -43.3038 3.51905 21.4447
lradius 101.402
lwrist 38.6792
lhand -26.0958 2.80305
lfingers 7.12502
lthumb 0.453256 32.7823
rfemur -58.6617 -14.0645 22.9411
rtibia 76.3327
rfoot 8.9456 6.80711
rtoes 4.85053
lfemur -16.5837 1.45067 -17.4739
ltibia 39.1369
lfoot -13.2017 -14.5123
ltoes 60.69
249
root 4.36426 16.7621 -6.15616 7.53921 -6.89345 -6.23981
lowerback 9.1489 2.73074 -0.603505
upperback 2.00781 3.68462 3.35517
thorax -3.29842 1.8444 3.38126
lowerneck -8.99361 -2.96536 5.87703
upperneck 5.59354 -4.87167 2.48349
head 3.3183 -2.17163 -0.484957
rclavicle 5.41688e-015 -1.63003e-014
rhumerus -32.1203 -6.77743 0.498238
rradius 64.7848
rwrist -5.08699
rhand -49.0309 -48.8997
rfingers 7.12502
rthumb -21.6587 -77.7082
lclavicle 5.41688e-015 -1.63003e-014
lhumerus -45.0772 3.26884 24.9153
lradius 101.17
lwrist 36.945
lhand -26.279 2.54227
lfingers 7.12502
lthumb 0.276239 32.5218
rfemur -56.9404 -12.5122 22.6544
rtibia 73.0313
rfoot 7.38767 6.6901
rtoes 1.42575
lfemur -17.7838 2.94741 -18.0001
ltibia 42.7592
lfoot -19.9109 -15.929
ltoes 55.1284
250
root 4.29 16.4815 -6.05944 7.58406 -6.18035 -5.72378
lowerback 9.43109 2.49692 -1.23346
upperback 2.0571 3.29954 2.97328
thorax -3.39029 1.65723 3.37623
lowerneck -8.51805 -2.83622 5.93925
upperneck 4.70171 -4.66263 2.95812
head 2.93337 -2.08375 -0.307714
rclavicle 7.70291e-015 1.19271e-015
rhumerus -35.6512 -7.71287 -1.56687
rradius 66.7327
rwrist -6.58133
rhand -49.4274 -52.0939
rfingers 7.12502
rthumb -22.0395 -80.8581
lclavicle 7.70291e-015 1.19271e-015
lhumerus -46.5494 3.07961 28.8527
lradius 100.324
lwrist 35.5939
lhand -26.3937 2.66252
lfingers 7.12502
lthumb 0.165449 32.6422
rfemur -55.4009 -10.9952 22.0164
rtibia 70.235
rfoot 5.31659 5.91716
rtoes -0.994322
lfemur -19.1524 4.1824 -18.7545
ltibia 46.4402
lfoot -27.5633 -13.0357
ltoes 44.2075
